<svg xmlns="http://www.w3.org/2000/svg"  viewBox="0 0 64 64" width="64px" height="64px"><linearGradient id="UmunU6XoVo5zWwiybTDrUa" x1="32" x2="32" y1="7.06" y2="56.94" gradientUnits="userSpaceOnUse"><stop offset="0" stop-color="#6bc5fd"/><stop offset="1" stop-color="#e4a9fd"/></linearGradient><path fill="url(#UmunU6XoVo5zWwiybTDrUa)" d="M52,18c0,0-2.14-2.563-4.18-4.339c-2.409,1.852-5.135,4.908-6.9,9.619l4.46,2.79l-11.47,2.8	l-2.809-11.509l3.779,2.129c1.97-4.54,5.87-9.67,10.7-12.43c2.19,0,5.3,2.13,6.74,4.25c0,0.01,0.01,0.01,0.02,0.02	C53.26,12.72,53.4,15.51,52,18z M18,12c0,0-2.563,2.14-4.339,4.18c1.852,2.409,4.908,5.135,9.619,6.9l2.79-4.46l2.8,11.47	l-11.509,2.809l2.129-3.779c-4.54-1.97-9.67-5.87-12.43-10.7c0-2.19,2.13-5.3,4.25-6.74c0.01,0,0.01-0.01,0.02-0.02	C12.72,10.74,15.51,10.6,18,12z M12,46c0,0,2.14,2.563,4.18,4.339c2.409-1.852,5.135-4.908,6.9-9.619l-4.46-2.79l11.47-2.8	l2.809,11.509L29.12,44.51c-1.97,4.54-5.87,9.67-10.7,12.43c-2.19,0-5.3-2.13-6.74-4.25c0-0.01-0.01-0.01-0.02-0.02	C10.74,51.28,10.6,48.49,12,46z M46,52c0,0,2.563-2.14,4.339-4.18c-1.852-2.409-4.908-5.135-9.619-6.9l-2.79,4.46l-2.8-11.47	l11.509-2.809L44.51,34.88c4.54,1.97,9.67,5.87,12.43,10.7c0,2.19-2.13,5.3-4.25,6.74c-0.01,0-0.01,0.01-0.02,0.02	C51.28,53.26,48.49,53.4,46,52z"/><linearGradient id="UmunU6XoVo5zWwiybTDrUb" x1="32" x2="32" y1="6.06" y2="57.94" gradientUnits="userSpaceOnUse"><stop offset="0" stop-color="#1a6dff"/><stop offset="1" stop-color="#c822ff"/></linearGradient><path fill="url(#UmunU6XoVo5zWwiybTDrUb)" d="M18.42,57.94c-2.597,0-5.966-2.38-7.524-4.626c-0.025-0.029-0.048-0.061-0.07-0.093	c-1.159-1.751-1.059-4.92,0.231-7.572C6.738,39.011,5.73,30.545,8.699,22.925c0.043-0.111,0.104-0.209,0.177-0.294	c-1.008-1.14-1.922-2.381-2.684-3.715C6.105,18.765,6.06,18.594,6.06,18.42c0-2.597,2.378-5.964,4.623-7.522	c0.03-0.025,0.062-0.049,0.095-0.071c1.751-1.16,4.92-1.059,7.572,0.231c6.639-4.318,15.104-5.327,22.726-2.359	c0.11,0.043,0.209,0.104,0.293,0.177c1.14-1.008,2.381-1.922,3.715-2.684c0.151-0.086,0.322-0.132,0.496-0.132	c2.598,0,5.968,2.38,7.525,4.626c0.024,0.029,0.047,0.06,0.068,0.092c1.159,1.751,1.059,4.921-0.231,7.572	c4.319,6.639,5.327,15.104,2.359,22.725c-0.043,0.11-0.104,0.209-0.178,0.294c1.008,1.14,1.922,2.381,2.685,3.715	c0.086,0.151,0.132,0.322,0.132,0.496c0,2.598-2.382,5.97-4.629,7.526c-0.028,0.024-0.059,0.047-0.09,0.067	c-1.751,1.158-4.92,1.059-7.571-0.231c-6.649,4.327-15.127,5.33-22.757,2.348c-0.101-0.04-0.191-0.094-0.271-0.159	c-1.138,1.005-2.376,1.917-3.707,2.678C18.765,57.895,18.594,57.94,18.42,57.94z M13.367,53.179c1.392,1.453,3.385,2.622,4.804,2.75	c4.861-2.88,8.363-7.97,10.032-11.817c0.113-0.26,0.331-0.459,0.599-0.55c0.269-0.088,0.563-0.061,0.81,0.077l1.769,0.997	l-2.025-8.297l-8.195,2l2.45,1.533c0.403,0.252,0.573,0.753,0.406,1.198C21.235,48.493,16.216,51.959,13.367,53.179z M24.18,53.637	c8.683,3.139,18.443,0.753,24.708-6.021c-1.654-1.91-4.146-3.967-7.761-5.461l-2.35,3.756c-0.213,0.341-0.605,0.522-1.007,0.457	c-0.396-0.064-0.717-0.359-0.813-0.75l-2.8-11.47c-0.063-0.258-0.021-0.53,0.117-0.757s0.359-0.389,0.617-0.452l11.51-2.809	c0.387-0.093,0.793,0.049,1.034,0.368c0.241,0.318,0.27,0.748,0.074,1.095l-1.597,2.833c2.461,1.198,5.262,3.026,7.723,5.395	c3.137-8.682,0.749-18.448-6.022-24.708c-1.909,1.654-3.966,4.145-5.46,7.76l3.756,2.35c0.341,0.213,0.521,0.61,0.457,1.007	c-0.064,0.397-0.359,0.717-0.75,0.813l-11.47,2.8c-0.258,0.063-0.53,0.021-0.757-0.117c-0.227-0.138-0.389-0.36-0.452-0.617	l-2.809-11.51c-0.094-0.387,0.05-0.793,0.368-1.034c0.318-0.241,0.748-0.271,1.095-0.074l2.833,1.597	c1.198-2.461,3.026-5.263,5.395-7.723c-8.685-3.137-18.448-0.749-24.708,6.022c1.654,1.91,4.144,3.966,7.76,5.46l2.35-3.755	c0.213-0.341,0.611-0.521,1.007-0.457c0.397,0.064,0.717,0.359,0.813,0.75l2.8,11.47c0.063,0.258,0.021,0.53-0.117,0.756	c-0.138,0.227-0.36,0.39-0.617,0.453l-11.51,2.809c-0.39,0.096-0.794-0.05-1.034-0.367c-0.241-0.317-0.27-0.748-0.074-1.095	l1.597-2.833c-2.461-1.198-5.263-3.027-7.723-5.394c-3.138,8.681-0.749,18.446,6.021,24.708c1.91-1.654,3.967-4.146,5.46-7.761	l-3.755-2.35c-0.341-0.213-0.521-0.609-0.457-1.007c0.064-0.396,0.359-0.717,0.75-0.813l11.47-2.8	c0.258-0.061,0.529-0.021,0.756,0.117s0.39,0.359,0.453,0.617l2.809,11.51c0.095,0.388-0.05,0.794-0.367,1.034	c-0.318,0.241-0.748,0.269-1.095,0.074l-2.833-1.598C28.376,48.375,26.547,51.177,24.18,53.637z M47.561,51.567	c1.502,0.501,2.968,0.525,3.932,0.225c-0.242-0.647-0.681-1.55-1.37-2.569C49.316,50.069,48.46,50.852,47.561,51.567z M12.433,47.56	c-0.502,1.503-0.526,2.967-0.225,3.934c0.647-0.243,1.549-0.682,2.569-1.371C13.93,49.316,13.148,48.46,12.433,47.56z M40.72,39.92	c0.117,0,0.236,0.021,0.351,0.063c7.423,2.781,10.889,7.801,12.108,10.65c1.453-1.393,2.622-3.386,2.75-4.804	c-2.88-4.862-7.97-8.363-11.817-10.033c-0.26-0.112-0.459-0.33-0.55-0.599c-0.09-0.269-0.062-0.563,0.077-0.81l0.997-1.769	l-8.297,2.025l2,8.195l1.533-2.45C40.059,40.091,40.383,39.92,40.72,39.92z M8.072,18.17c2.879,4.861,7.968,8.362,11.816,10.032	c0.26,0.113,0.46,0.331,0.55,0.599c0.09,0.269,0.063,0.563-0.077,0.81l-0.997,1.769l8.297-2.025l-2.001-8.195l-1.533,2.45	c-0.251,0.403-0.75,0.574-1.199,0.406c-7.423-2.782-10.889-7.8-12.108-10.649C9.369,14.759,8.2,16.751,8.072,18.17z M32.62,19.364	l2.025,8.297l8.195-2.001l-2.45-1.533c-0.403-0.252-0.573-0.753-0.406-1.199c2.782-7.424,7.801-10.889,10.649-12.108	C49.241,9.369,47.248,8.2,45.83,8.072c-4.862,2.879-8.363,7.969-10.033,11.816c-0.112,0.26-0.33,0.46-0.599,0.55	c-0.267,0.091-0.563,0.063-0.81-0.077L32.62,19.364z M49.222,13.877c0.848,0.806,1.63,1.663,2.345,2.563	c0.503-1.503,0.526-2.966,0.226-3.933C51.145,12.75,50.242,13.188,49.222,13.877z M12.507,12.208c0.242,0.647,0.68,1.549,1.37,2.57	c0.806-0.848,1.663-1.63,2.563-2.345C14.936,11.93,13.472,11.905,12.507,12.208z"/></svg>